# xmcd
#
# Track frame offsets: 
#        150
#        13492
#        26009
#        42093
#        59364
#        71217
#        87068
#        100991
#        115697
#        135983
#        150478
#        165879
#        176544
#
# Disc length: 2576 seconds
#
# Revision: 0
# Processed by: cddbd v1.5.2PL0 Copyright (c) Steve Scherf et al.
# Submitted via: ExactAudioCopy v0.95b4
#
DISCID=9d0a0e0d
DTITLE=Vincent Delerm - Les piqûres d'araignée
DYEAR=2006
DGENRE=Chanson
TTITLE0=sous les avalanches
TTITLE1=je t'ai même pas dit
TTITLE2=à naples il y a peu d'endroits pour s'asseoir
TTITLE3=marine
TTITLE4=ambroise paré
TTITLE5=sépia plein les doigts
TTITLE6=les piqûres d'araignée
TTITLE7=déjà toi
TTITLE8=29 avril au 28 mai
TTITLE9=voici la ville
TTITLE10=il fait si beau
TTITLE11=favourite song
TTITLE12=les jambes de steffi graf
EXTD=
EXTT0=
EXTT1=
EXTT2=
EXTT3=
EXTT4=
EXTT5=
EXTT6=
EXTT7=
EXTT8=
EXTT9=
EXTT10=
EXTT11=
EXTT12=
PLAYORDER=
